<svg viewBox="0 0 100 100" xmlns="http://www.w3.org/2000/svg">
  <rect width="100" height="100" rx="22" fill="#f4f1ea"/>
  <path d="M18 50 L18 84 L82 84 L82 50 C82 31 68 17 50 17 C32 17 18 31 18 50 Z" fill="none" stroke="#2e4636" stroke-width="5.5" stroke-linejoin="round"/>
  <rect x="37" y="40" width="8" height="37" rx="3" fill="#2e4636"/>
  <circle cx="53" cy="51" r="12.5" fill="none" stroke="#2e4636" stroke-width="6"/>
  <circle cx="53" cy="51" r="4.6" fill="#8a9a6b"/>
  <g transform="translate(62 24) rotate(-22)">
    <path d="M0 0 C 6 -9 19 -9 25 0 C 19 9 6 9 0 0 Z" fill="#8a9a6b"/>
  </g>
  <g transform="translate(70 35) rotate(16)">
    <path d="M0 0 C 5 -7 16 -7 21 0 C 16 7 5 7 0 0 Z" fill="#6f8052"/>
  </g>
</svg>
