<?xml version="1.0" encoding="UTF-8"?>
<svg version="1.2" baseProfile="tiny-ps" id="prima-vista-bimi" xmlns="http://www.w3.org/2000/svg" viewBox="0 0 512 512" xml:space="preserve">
<title>Prima Vista Bio Reinigung</title>
<rect width="512" height="512" fill="#f5f7ef"/>
<path fill="#173a25" d="M130 286V189l38-22v-31l30-18v31l62-39 128 81v92c-31-23-69-35-111-35-52 0-97 17-147 38z"/>
<path fill="#8fa37d" d="M366 327c1-70 34-120 95-160 2 73-33 129-95 160z"/>
<path fill="#5f764f" d="M394 300c16-42 41-75 68-100-7 44-31 79-68 100z"/>
<path fill="#8fa37d" d="M402 339c25-48 69-75 116-73-27 48-69 72-116 73z"/>
<path fill="#5f764f" d="M427 323c25-21 52-34 77-40-18 24-45 37-77 40z"/>
<path fill="#8fa37d" d="M104 352c76-27 156-30 242-10 36 8 71 20 106 34-64-18-128-28-191-25-53 2-105 12-157 31v-30z"/>
<path fill="#aaa77b" d="M254 92c85 0 154 69 154 154s-69 154-154 154h-18v-86h43c38 0 68-30 68-68s-30-68-68-68h-43v222h-68V162c22-42 55-70 86-70z"/>
<circle cx="279" cy="246" r="79" fill="#fffefa"/>
<circle cx="279" cy="246" r="47" fill="#92916d"/>
<circle cx="279" cy="246" r="29" fill="#173a25"/>
<circle cx="257" cy="223" r="11" fill="#fffefa"/>
</svg>
